<svg id="visual" viewBox="0 0 900 600" width="900" height="600" xmlns="http://www.w3.org/2000/svg" xmlns:xlink="http://www.w3.org/1999/xlink" version="1.1"><rect x="0" y="0" width="900" height="600" fill="#FAFAFA"></rect><g transform="translate(437.4053208937779 313.16880163193116)"><path d="M165.6 -290.3C206.2 -263.4 224.9 -202 252.1 -147.9C279.4 -93.8 315.2 -46.9 328 7.4C340.8 61.7 330.6 123.3 297.5 167.2C264.3 211.1 208.1 237.2 154.7 255.3C101.3 273.5 50.7 283.8 -0.2 284C-51 284.3 -102 274.7 -154.8 256.2C-207.7 237.7 -262.3 210.3 -287.8 166.2C-313.3 122 -309.7 61 -304.2 3.2C-298.7 -54.7 -291.4 -109.3 -271 -162.4C-250.7 -215.6 -217.4 -267.1 -170 -290.1C-122.7 -313.1 -61.3 -307.6 0.6 -308.6C62.5 -309.6 125 -317.2 165.6 -290.3" fill="#ECF9F3"></path></g></svg>